<?xml version="1.0" standalone="no"?><!DOCTYPE svg PUBLIC "-//W3C//DTD SVG 1.1//EN" "http://www.w3.org/Graphics/SVG/1.1/DTD/svg11.dtd"><svg t="1704993236884" class="icon" viewBox="0 0 1024 1024" version="1.1" xmlns="http://www.w3.org/2000/svg" p-id="1692" data-darkreader-inline-fill="" xmlns:xlink="http://www.w3.org/1999/xlink" width="200" height="200"><path d="M690.726809 750.684259l-48.583338-28.234585 11.4703-6.617481 48.583338 28.234585-11.4703 6.617481z" fill="#DB0000" p-id="1693" data-darkreader-inline-fill="" style="--darkreader-inline-fill: #ff3333;"></path><path d="M655.185423 753.469115l-48.583338-28.234584 0.34466 0.19301 48.583338 28.234584-0.34466-0.19301" fill="#9E0000" p-id="1694" data-darkreader-inline-fill="" style="--darkreader-inline-fill: #ff5d5d;"></path><path d="M655.530083 753.662125l-48.583338-28.234584a28.400022 28.400022 0 0 0 2.840002 1.378641l48.583338 28.234585a28.400022 28.400022 0 0 1-2.840002-1.378642" fill="#A30000" p-id="1695" data-darkreader-inline-fill="" style="--darkreader-inline-fill: #ff5a5a;"></path><path d="M658.370085 755.054553l-48.583338-28.234584a23.905649 23.905649 0 0 0 2.633206 0.92369l48.583338 28.234584a23.905649 23.905649 0 0 1-2.633206-0.92369" fill="#A80000" p-id="1696" data-darkreader-inline-fill="" style="--darkreader-inline-fill: #ff5656;"></path><path d="M661.003291 755.978243l-48.583338-28.234584c0.330874 0.110291 0.675534 0.19301 1.006409 0.275728 0.675534 0.165437 1.378642 0.303301 2.04039 0.427379l48.583338 28.234585c-0.675534-0.124078-1.378642-0.261942-2.04039-0.427379l-1.006409-0.275729" fill="#AD0000" p-id="1697" data-darkreader-inline-fill="" style="--darkreader-inline-fill: #ff5353;"></path><path d="M664.05009 756.681351l-48.583338-28.234585a30.013032 30.013032 0 0 0 3.350099 0.38602l48.583338 28.234584a30.013032 30.013032 0 0 1-3.350099-0.386019" fill="#B30000" p-id="1698" data-darkreader-inline-fill="" style="--darkreader-inline-fill: #ff4f4f;"></path><path d="M667.400189 757.06737L618.830638 728.832786a31.391674 31.391674 0 0 0 3.419031 0l48.583338 28.234584a31.391674 31.391674 0 0 1-3.419031 0" fill="#B80000" p-id="1699" data-darkreader-inline-fill="" style="--darkreader-inline-fill: #ff4b4b;"></path><path d="M670.819221 757.10873l-48.583338-28.234585c1.213205 0 2.42641-0.179223 3.653401-0.358447l48.583338 28.234585c-1.226991 0.179223-2.440196 0.303301-3.653401 0.358447" fill="#BD0000" p-id="1700" data-darkreader-inline-fill="" style="--darkreader-inline-fill: #ff4848;"></path><path d="M674.472622 756.750283l-48.583338-28.234585c1.378642-0.220583 2.757284-0.510097 4.135925-0.882331l48.583338 28.234585c-1.378642 0.372233-2.757284 0.661748-4.135925 0.882331" fill="#C20000" p-id="1701" data-darkreader-inline-fill="" style="--darkreader-inline-fill: #ff4444;"></path><path d="M678.63612 755.867952l-48.583338-28.234585a45.081588 45.081588 0 0 0 5.418063-1.861166l48.583337 28.234585a45.081588 45.081588 0 0 1-5.418062 1.861166" fill="#C70000" p-id="1702" data-darkreader-inline-fill="" style="--darkreader-inline-fill: #ff4141;"></path><path d="M684.054182 754.006786l-48.583337-28.234585a56.634606 56.634606 0 0 0 6.672626-3.322527l48.583338 28.234585a56.634606 56.634606 0 0 1-6.672627 3.322527" fill="#CC0000" p-id="1703" data-darkreader-inline-fill="" style="--darkreader-inline-fill: #ff3d3d;"></path><path d="M553.358938 829.942377l-48.583338-28.234584a74.157144 74.157144 0 0 0 15.082341-11.180786l48.583338 28.234585a74.157144 74.157144 0 0 1-15.082341 11.180785" fill="#CC0000" p-id="1704" data-darkreader-inline-fill="" style="--darkreader-inline-fill: #ff3d3d;"></path><path d="M568.441279 818.816738l-48.583338-28.234585c0.937476-0.92369 1.833594-1.861166 2.660779-2.826216l48.583338 28.234585c-0.827185 0.951263-1.723302 1.902526-2.660779 2.757283" fill="#C70000" p-id="1705" data-darkreader-inline-fill="" style="--darkreader-inline-fill: #ff4141;"></path><path d="M571.102058 815.990522l-48.583338-28.234585c0.57903-0.661748 1.130486-1.378642 1.65437-1.99903l48.583338 28.234584c-0.523884 0.675534-1.075341 1.378642-1.65437 1.999031" fill="#C20000" p-id="1706" data-darkreader-inline-fill="" style="--darkreader-inline-fill: #ff4444;"></path><path d="M572.756428 813.991491L524.17309 785.825839c0.413593-0.53767 0.813399-1.089127 1.199419-1.640584l48.583337 28.234585c-0.38602 0.551457-0.785826 1.089127-1.199418 1.640583" fill="#BD0000" p-id="1707" data-darkreader-inline-fill="" style="--darkreader-inline-fill: #ff4848;"></path><path d="M573.955846 812.350907l-48.583337-28.234584c0.34466-0.482525 0.675534-0.965049 0.992622-1.46136l48.583338 28.234584c-0.317088 0.482525-0.647962 0.978836-0.992623 1.46136" fill="#B80000" p-id="1708" data-darkreader-inline-fill="" style="--darkreader-inline-fill: #ff4b4b;"></path><path d="M574.948469 810.889547l-48.583338-28.234584 0.827185-1.378642 48.583338 28.234584-0.827185 1.378642" fill="#B30000" p-id="1709" data-darkreader-inline-fill="" style="--darkreader-inline-fill: #ff4f4f;"></path><path d="M575.775654 809.538478l-48.583338-28.234584 0.716894-1.378642 48.583337 28.234584-0.716893 1.378642" fill="#AD0000" p-id="1710" data-darkreader-inline-fill="" style="--darkreader-inline-fill: #ff5353;"></path><path d="M576.492547 808.228768l-48.583337-28.234584c0.234369-0.427379 0.441165-0.854758 0.661748-1.282137l48.583337 28.234584c-0.220583 0.427379-0.427379 0.854758-0.661748 1.282137" fill="#A80000" p-id="1711" data-darkreader-inline-fill="" style="--darkreader-inline-fill: #ff5656;"></path><path d="M577.154295 806.946631l-48.583337-28.234584a16.543702 16.543702 0 0 0 0.592816-1.378642l48.583337 28.234585c-0.19301 0.441165-0.38602 0.868544-0.592816 1.378641" fill="#A30000" p-id="1712" data-darkreader-inline-fill="" style="--darkreader-inline-fill: #ff5a5a;"></path><path d="M577.747111 805.636922L529.218919 777.402337c0.137864-0.317088 0.275728-0.634175 0.399806-0.965049s0.124078-0.289515 0.179224-0.441165l48.583338 28.234584c0 0.137864-0.124078 0.289515-0.179224 0.441165s-0.261942 0.647962-0.399806 0.96505" fill="#9E0000" p-id="1713" data-darkreader-inline-fill="" style="--darkreader-inline-fill: #ff5d5d;"></path><path d="M578.326141 804.230707l-48.583338-28.234584c0.206796-0.53767 0.399806-1.075341 0.565243-1.599225L578.850025 802.617696c-0.165437 0.53767-0.358447 1.075341-0.565243 1.613011" fill="#990000" p-id="1714" data-darkreader-inline-fill="" style="--darkreader-inline-fill: #ff6161;"></path><path d="M578.850025 802.617696l-48.583338-28.220798c0.19301-0.57903 0.372233-1.158059 0.523884-1.723302l48.583338 28.234584c-0.151651 0.565243-0.330874 1.144273-0.523884 1.709516" fill="#940000" p-id="1715" data-darkreader-inline-fill="" style="--darkreader-inline-fill: #ff6464;"></path><path d="M579.415268 800.90818l-48.583338-28.234584c0.19301-0.647962 0.34466-1.295923 0.482525-1.930099l48.583338 28.220798c-0.137864 0.647962-0.289515 1.295923-0.482525 1.943885" fill="#8F0000" p-id="1716" data-darkreader-inline-fill="" style="--darkreader-inline-fill: #ff6868;"></path><path d="M579.897793 798.964295l-48.583338-28.220798c0.179223-0.854758 0.330874-1.695729 0.427379-2.522914l48.583338 28.220798c-0.096505 0.840972-0.248156 1.681943-0.427379 2.522914" fill="#8A0000" p-id="1717" data-darkreader-inline-fill="" style="--darkreader-inline-fill: #ff6b6b;"></path><path d="M580.325172 796.441381l-48.583338-28.220798a29.9441 29.9441 0 0 0-4.135926-19.300986l48.583338 28.234585a29.930314 29.930314 0 0 1 4.135926 19.300985" fill="#850000" p-id="1718" data-darkreader-inline-fill="" style="--darkreader-inline-fill: #ff6f6f;"></path><path d="M538.0698 838.82083l-48.569552-28.234584 15.289138-8.823308 48.569552 28.234585-15.289138 8.823307z" fill="#DB0000" p-id="1719" data-darkreader-inline-fill="" style="--darkreader-inline-fill: #ff3333;"></path><path d="M538.152518 864.656578l-48.583338-28.220798-0.068932-25.849534 48.569552 28.234584 0.082718 25.835748z" fill="#880000" p-id="1720" data-darkreader-inline-fill="" style="--darkreader-inline-fill: #ff6d6d;"></path><path d="M397.50348 919.981475l-48.583338-28.234585 7.637675-4.411654L405.141155 915.569821l-7.637675 4.411654z" fill="#DB0000" p-id="1721" data-darkreader-inline-fill="" style="--darkreader-inline-fill: #ff3333;"></path><path d="M369.158604 926.612742l-48.583338-28.234585h0.096505L369.296468 926.667887h-0.096505" fill="#9E0000" p-id="1722" data-darkreader-inline-fill="" style="--darkreader-inline-fill: #ff5d5d;"></path><path d="M369.296468 926.667887l-48.624697-28.234584a8.395929 8.395929 0 0 0 0.868544 0.413592l48.583338 28.234585a8.395929 8.395929 0 0 1-0.868544-0.413593" fill="#A30000" p-id="1723" data-darkreader-inline-fill="" style="--darkreader-inline-fill: #ff5a5a;"></path><path d="M370.123653 927.08148L321.540315 898.874468a6.65884 6.65884 0 0 0 0.92369 0.330874l48.583338 28.234585a9.112822 9.112822 0 0 1-0.92369-0.330874" fill="#A80000" p-id="1724" data-darkreader-inline-fill="" style="--darkreader-inline-fill: #ff5656;"></path><path d="M371.047343 927.412354L322.422646 899.177769a8.271851 8.271851 0 0 0 1.006408 0.23437L372.053752 927.646723a8.271851 8.271851 0 0 1-1.006409-0.234369" fill="#AD0000" p-id="1725" data-darkreader-inline-fill="" style="--darkreader-inline-fill: #ff5353;"></path><path d="M372.053752 927.646723l-48.583338-28.234584c0.206796 0 0.399806 0.068932 0.606602 0.082718s0.592816 0 0.882331 0.082719L373.542685 927.825946l-0.882331-0.082718-0.606602-0.082719" fill="#B30000" p-id="1726" data-darkreader-inline-fill="" style="--darkreader-inline-fill: #ff4f4f;"></path><path d="M373.542685 927.825946l-48.583338-28.24837a19.811083 19.811083 0 0 0 2.219613 0L375.762298 927.825946a19.811083 19.811083 0 0 1-2.219613 0" fill="#B80000" p-id="1727" data-darkreader-inline-fill="" style="--darkreader-inline-fill: #ff4b4b;"></path><path d="M375.762298 927.825946l-48.583338-28.234584a24.181378 24.181378 0 0 0 2.757284-0.275728l48.583338 28.234584a24.181378 24.181378 0 0 1-2.757284 0.275728" fill="#BD0000" p-id="1728" data-darkreader-inline-fill="" style="--darkreader-inline-fill: #ff4848;"></path><path d="M378.478222 927.550218l-48.583337-28.234584a36.189348 36.189348 0 0 0 3.6534-0.77204l48.583338 28.234585a36.189348 36.189348 0 0 1-3.653401 0.772039" fill="#C20000" p-id="1729" data-darkreader-inline-fill="" style="--darkreader-inline-fill: #ff4444;"></path><path d="M382.131623 926.778179l-48.583338-28.234585a49.451882 49.451882 0 0 0 5.845442-2.026603l48.583338 28.234584a49.451882 49.451882 0 0 1-5.845442 2.026604" fill="#C70000" p-id="1730" data-darkreader-inline-fill="" style="--darkreader-inline-fill: #ff4141;"></path><path d="M387.977065 924.751575l-48.583338-28.234584a81.781033 81.781033 0 0 0 9.526415-4.770101l48.583338 28.234585a81.781033 81.781033 0 0 1-9.526415 4.7701" fill="#CC0000" p-id="1731" data-darkreader-inline-fill="" style="--darkreader-inline-fill: #ff3d3d;"></path><path d="M277.396204 989.327158L228.812866 961.092574A94.795412 94.795412 0 0 0 247.975988 946.28596l48.583337 28.234585a95.126286 95.126286 0 0 1-19.20448 14.806613" fill="#CC0000" p-id="1732" data-darkreader-inline-fill="" style="--darkreader-inline-fill: #ff3d3d;"></path><path d="M296.600685 974.520545L247.975988 946.28596c2.04039-2.012817 4.039421-4.135925 6.010878-6.42447l48.583338 28.234584q-2.950293 3.391459-6.010879 6.424471" fill="#C70000" p-id="1733" data-darkreader-inline-fill="" style="--darkreader-inline-fill: #ff4141;"></path><path d="M302.611563 968.096074l-48.583338-28.234584q2.343691-2.757284 4.61845-5.624859L307.257586 962.471215c-1.516506 1.943885-3.060585 3.832624-4.61845 5.624859" fill="#C20000" p-id="1734" data-darkreader-inline-fill="" style="--darkreader-inline-fill: #ff4444;"></path><path d="M307.257586 962.471215l-48.610911-28.234584q2.067963-2.660779 4.066994-5.514567l48.583337 28.234584q-2.012817 2.853789-4.135925 5.514567" fill="#BD0000" p-id="1735" data-darkreader-inline-fill="" style="--darkreader-inline-fill: #ff4848;"></path><path d="M311.297006 956.956648l-48.583337-28.234584 0.468738-0.689321q2.371264-3.419032 4.549518-6.824277l48.583338 28.234584c-1.46136 2.274759-2.96408 4.549518-4.549518 6.893209l-0.468739 0.689321" fill="#B80000" p-id="1736" data-darkreader-inline-fill="" style="--darkreader-inline-fill: #ff4b4b;"></path><path d="M316.315263 949.44305L267.731925 921.208466q2.2334-3.50175 4.287576-7.017287l48.583338 28.234584q-2.054176 3.515537-4.287576 7.017287" fill="#B30000" p-id="1737" data-darkreader-inline-fill="" style="--darkreader-inline-fill: #ff4f4f;"></path><path d="M320.602839 942.425763l-48.583338-28.234584q1.916312-3.267381 3.653401-6.534762l48.583338 28.234584c-1.158059 2.178254-2.38505 4.356508-3.653401 6.534762" fill="#AD0000" p-id="1738" data-darkreader-inline-fill="" style="--darkreader-inline-fill: #ff5353;"></path><path d="M324.25624 935.891001l-48.583338-28.234584c1.102913-2.095536 2.164468-4.135925 3.170876-6.272821l48.583338 28.234585c-1.006409 2.095536-2.067963 4.135925-3.170876 6.27282" fill="#A80000" p-id="1739" data-darkreader-inline-fill="" style="--darkreader-inline-fill: #ff5656;"></path><path d="M327.427116 929.618181l-48.583338-28.234585c0.992622-2.054176 1.930099-4.135925 2.757284-6.148742l48.583337 28.220798q-1.378642 3.088158-2.826215 6.162529" fill="#A30000" p-id="1740" data-darkreader-inline-fill="" style="--darkreader-inline-fill: #ff5a5a;"></path><path d="M330.253331 923.455652l-48.583337-28.220798q1.378642-3.115731 2.550487-6.245248l48.583338 28.234585q-1.199418 3.129517-2.550488 6.231461" fill="#9E0000" p-id="1741" data-darkreader-inline-fill="" style="--darkreader-inline-fill: #ff5d5d;"></path><path d="M332.803819 917.224191l-48.583338-28.234585c0.634175-1.65437 1.240778-3.322527 1.819807-4.990683l48.583338 28.234584c-0.57903 1.668157-1.185632 3.322527-1.819807 4.990684" fill="#990000" p-id="1742" data-darkreader-inline-fill="" style="--darkreader-inline-fill: #ff6161;"></path><path d="M262.09328 998.164252L213.509942 969.929668l15.302924-8.837094 48.583338 28.234584-15.302924 8.837094z" fill="#DB0000" p-id="1743" data-darkreader-inline-fill="" style="--darkreader-inline-fill: #ff3333;"></path><path d="M262.162212 1024L213.578874 995.765415 213.509942 969.929668l48.583338 28.234584 0.068932 25.835748z" fill="#880000" p-id="1744" data-darkreader-inline-fill="" style="--darkreader-inline-fill: #ff6d6d;"></path><path d="M576.17546 777.195541l-48.583338-28.234585-103.935807-201.03355 48.583338 28.234584 103.935807 201.033551z" fill="#800000" p-id="1745" data-darkreader-inline-fill="" style="--darkreader-inline-fill: #660000;"></path><path d="M334.623626 912.233507l-48.583338-28.234584 120.879315-368.4696 48.583338 28.234585-120.879315 368.469599zM488.824714 442.144219l-48.583338-28.220798 86.385697-263.279229 48.583337 28.220798-86.385696 263.279229z" fill="#A50000" p-id="1746" data-darkreader-inline-fill="" style="--darkreader-inline-fill: #840000;"></path><path d="M575.21041 178.86499l-48.583337-28.220798q1.585438-5.142334 2.895147-9.81593l48.583338 28.234585q-1.295923 4.673596-2.895148 9.802143" fill="#940000" p-id="1747" data-darkreader-inline-fill="" style="--darkreader-inline-fill: #ff6464;"></path><path d="M578.105558 169.062847l-48.583338-28.234585q2.012817-7.23787 3.322527-13.386612l48.583338 28.234585q-1.295923 6.134956-3.322527 13.386612" fill="#8F0000" p-id="1748" data-darkreader-inline-fill="" style="--darkreader-inline-fill: #ff6868;"></path><path d="M581.428085 155.676235l-48.583338-28.234585q1.213205-5.707577 1.833594-10.463891l48.583338 28.234584q-0.620389 4.756314-1.833594 10.463892" fill="#8A0000" p-id="1749" data-darkreader-inline-fill="" style="--darkreader-inline-fill: #ff6b6b;"></path><path d="M583.261679 145.212343L534.733487 116.977759q1.378642-11.029135-0.358447-17.026227a8.823308 8.823308 0 0 0-3.873984-5.376703l48.583338 28.234585a8.740589 8.740589 0 0 1 3.873984 5.376703q1.806021 5.969519 0.358446 17.026226" fill="#850000" p-id="1750" data-darkreader-inline-fill="" style="--darkreader-inline-fill: #ff6f6f;"></path><path d="M533.010184 141.572729l-48.583338-28.234585-0.068932-25.835748 48.583338 28.234585 0.068932 25.835748z" fill="#880000" p-id="1751" data-darkreader-inline-fill="" style="--darkreader-inline-fill: #ff6d6d;"></path><path d="M532.941252 115.736981l-48.583338-28.234585L635.91201 0l48.583338 28.234585L532.941252 115.736981z" fill="#DB0000" p-id="1752" data-darkreader-inline-fill="" style="--darkreader-inline-fill: #af0000;"></path><path d="M455.502941 543.763908l-48.583338-28.234585-130.01971-251.5332 48.583338 28.234584 130.01971 251.533201z" fill="#800000" p-id="1753" data-darkreader-inline-fill="" style="--darkreader-inline-fill: #660000;"></path><path d="M325.483231 292.272066L276.927466 263.996123a22.430502 22.430502 0 0 0-9.650493-12.559427l48.583338 28.220798a22.513221 22.513221 0 0 1 9.650493 12.573213" fill="#850000" p-id="1754" data-darkreader-inline-fill="" style="--darkreader-inline-fill: #ff6f6f;"></path><path d="M271.854064 292.354785L223.270726 264.1202l-0.068932-25.835747 48.583338 28.234584 0.068932 25.835748z" fill="#880000" p-id="1755" data-darkreader-inline-fill="" style="--darkreader-inline-fill: #ff6d6d;"></path><path d="M684.495348 28.234585l0.068932 25.835747-22.926814 13.248748Q653.986004 71.689375 642.529491 87.157736T619.657823 126.835048l-114.165329 347.982982 131.550002 258.412623q11.539232 19.78351 24.967204 23.023319t28.717109-5.514568l11.4703-6.61748 0.082718 25.835747-164.058377 94.754053-0.082718-25.835748 15.289138-8.823308q19.107976-11.029135 24.815552-25.32565a29.98546 29.98546 0 0 0-1.971457-27.476331l-104.032312-201.088697-89.72201 264.120201q-7.816899 26.662933-13.662341 45.49518c-3.88777 12.573213-5.831655 20.307394-5.817868 23.257687q0 17.59147 9.650493 18.694384t24.815553-7.747967l7.637675-4.411654 0.082719 25.835747-143.061662 82.594432v-25.835748l15.302924-8.837094q19.107976-11.029135 34.369541-33.087404a181.594701 181.594701 0 0 0 22.857881-44.033819l120.879315-368.4696L325.483231 292.272066c-2.57806-7.306802-7.058646-12.076902-13.455544-14.255156s-14.696322-0.330874-24.815553 5.514567l-15.289138 8.823308v-25.835748l163.782648-94.561042 0.068933 25.835747-11.456514 6.617481q-22.926814 13.234961-26.938661 28.758468t4.135925 37.22333l87.309387 171.751198 86.385696-263.320588q11.635737-37.540417 7.692822-50.678874t-26.966234 0.151651l-22.926814 13.234961L532.941252 115.805913z" fill="#FFCC00" p-id="1756" data-darkreader-inline-fill="" style="--darkreader-inline-fill: #997a00;"></path><path d="M271.785132 266.519037L223.201794 238.284453l163.782648-94.561043 48.583338 28.234585-163.782648 94.561042z" fill="#DB0000" p-id="1757" data-darkreader-inline-fill="" style="--darkreader-inline-fill: #af0000;"></path></svg>